<svg xmlns="http://www.w3.org/2000/svg" xmlns:xlink="http://www.w3.org/1999/xlink" viewBox="0 0 112.2 23.17"><defs><style>.cls-1{fill:none;}.cls-2{clip-path:url(#clip-path);}.cls-3{fill:#ff7e30;fill-rule:evenodd;}.cls-4{fill:#002359;}</style><clipPath id="clip-path" transform="translate(0 0)"><rect class="cls-1" width="23.17" height="23.17"/></clipPath></defs><g id="Capa_2" data-name="Capa 2"><g id="Capa_1-2" data-name="Capa 1"><g class="cls-2"><g class="cls-2"><path class="cls-3" d="M17.25,21.68a11.35,11.35,0,0,0,1.27-.81l-.93-1.45h0l-.12-.17-.32-.48-.1-.16.14-.12A8.91,8.91,0,0,0,18.73,6.28a9,9,0,0,0-1.49-1.59l-.8,1.54a7.12,7.12,0,0,1,1.06,1.2A7.25,7.25,0,0,1,14.71,18.1l1,1.58.32.48.13.2-.22.11-.41.19-.42.18A9.9,9.9,0,0,1,2.33,15.12c-.09-.23-.17-.48-.24-.72a5.12,5.12,0,0,1-.15-.56l-1.7.08a7,7,0,0,0,.19.79c.1.34.21.68.33,1a11.57,11.57,0,0,0,15,6.68,11.82,11.82,0,0,0,1.53-.71ZM11.45,0a11.87,11.87,0,0,1,3.79.59l-.78,1.52a10,10,0,0,0-3.13-.43,9.92,9.92,0,0,0-7.7,4,10,10,0,0,0-1.94,5.24v.24h.24l.58,0h.2l1.67-.07a7.15,7.15,0,0,0,0,1.46,7,7,0,0,0,.42,1.66,7.23,7.23,0,0,0,8.94,4.3L14.71,20A8.91,8.91,0,0,1,3.27,14.79h0c-.1-.29-.2-.58-.28-.88A8.79,8.79,0,0,1,2.8,13l0-.19H2.58l-.57,0-.49,0-1.44,0A11.6,11.6,0,0,1,7.45.76a11.41,11.41,0,0,1,4-.76Zm8.43,3.5a11.58,11.58,0,0,1,2.94,10.94,11.67,11.67,0,0,1-3.53,5.8l-.92-1.44A9.91,9.91,0,0,0,20.84,8.05a10.33,10.33,0,0,0-1.51-2.64,10,10,0,0,0-2.24-2.06l-.2-.13-.11.22-.26.5-.87,1.67a7.26,7.26,0,0,0-3.11-1.19A7.31,7.31,0,0,0,6.05,6.93,7.32,7.32,0,0,0,4.52,10l-1.72.08A8.86,8.86,0,0,1,8.41,3.27a8.78,8.78,0,0,1,6.33,0l.18.07L15,3.17l.26-.51.16-.32h0L16.15,1A11.79,11.79,0,0,1,19.88,3.5Z" transform="translate(0 0)"/></g></g><path class="cls-4" d="M28.85,17.29a1.15,1.15,0,0,1-.18-.72,1,1,0,0,1,.52-.75,1.09,1.09,0,0,1,.67-.17,1.13,1.13,0,0,1,.7.37,4.71,4.71,0,0,0,1.21.89,3.6,3.6,0,0,0,1.59.32,4.32,4.32,0,0,0,.66-.09,1.27,1.27,0,0,0,.63-.32,1,1,0,0,0,.26-.76.89.89,0,0,0-.29-.7,2.56,2.56,0,0,0-.79-.44,10.73,10.73,0,0,0-1.08-.33l-1.27-.4a5.6,5.6,0,0,1-1.18-.57,2.65,2.65,0,0,1-.87-.92,2.8,2.8,0,0,1-.34-1.45,2.55,2.55,0,0,1,.56-1.69,3.56,3.56,0,0,1,1.44-1.08A4.72,4.72,0,0,1,33,8.1a6,6,0,0,1,1.29.15,5,5,0,0,1,1.29.48,3.2,3.2,0,0,1,1,.86,1.33,1.33,0,0,1,.26.72.85.85,0,0,1-.38.76.93.93,0,0,1-.69.2,1,1,0,0,1-.66-.26,2.19,2.19,0,0,0-.9-.7,3.14,3.14,0,0,0-1.3-.26,3.9,3.9,0,0,0-.65.07,1.4,1.4,0,0,0-.61.3.92.92,0,0,0-.26.73.92.92,0,0,0,.3.72,2.22,2.22,0,0,0,.81.44l1.08.33c.4.1.8.23,1.21.37a4.89,4.89,0,0,1,1.14.58,2.76,2.76,0,0,1,.83.93A2.79,2.79,0,0,1,37.06,16a2.62,2.62,0,0,1-.6,1.73A3.7,3.7,0,0,1,35,18.77a4.64,4.64,0,0,1-1.83.37,7.12,7.12,0,0,1-2.34-.41,4.07,4.07,0,0,1-1.95-1.44m20.42-3.66a5.49,5.49,0,0,1-.73,2.87,5.12,5.12,0,0,1-1.95,1.94,5.67,5.67,0,0,1-5.46,0,5.12,5.12,0,0,1-2-1.94,5.49,5.49,0,0,1-.73-2.87,5.52,5.52,0,0,1,.73-2.87,5.21,5.21,0,0,1,2-1.95,5.6,5.6,0,0,1,5.46,0,5.21,5.21,0,0,1,1.95,1.95,5.52,5.52,0,0,1,.73,2.87m-2.39,0a3.63,3.63,0,0,0-.4-1.76,3.07,3.07,0,0,0-1.1-1.16,3,3,0,0,0-3,0,3,3,0,0,0-1.09,1.16,3.52,3.52,0,0,0-.41,1.76,3.5,3.5,0,0,0,.41,1.74,2.91,2.91,0,0,0,1.09,1.16,3,3,0,0,0,3,0,3,3,0,0,0,1.1-1.16,3.6,3.6,0,0,0,.4-1.74m7,4.1a1.14,1.14,0,0,1-.35.86,1.18,1.18,0,0,1-.86.35,1.15,1.15,0,0,1-.84-.35,1.2,1.2,0,0,1-.33-.86V5.44a1.16,1.16,0,0,1,1.21-1.21,1.11,1.11,0,0,1,.84.34,1.22,1.22,0,0,1,.33.87V17.73m5,0a1.17,1.17,0,0,1-.34.86,1.14,1.14,0,0,1-.85.35,1.16,1.16,0,0,1-.86-.35,1.2,1.2,0,0,1-.33-.86V9.52a1.21,1.21,0,0,1,.33-.87,1.16,1.16,0,0,1,.86-.35,1.14,1.14,0,0,1,.85.35,1.18,1.18,0,0,1,.34.87v8.21M57.66,7a1.52,1.52,0,0,1-.95-.22A.9.9,0,0,1,56.43,6V5.64a.9.9,0,0,1,.3-.79,1.74,1.74,0,0,1,1-.21,1.65,1.65,0,0,1,1,.22.94.94,0,0,1,.28.78V6a.89.89,0,0,1-.3.78,1.72,1.72,0,0,1-1,.21M69.93,4.23a1.16,1.16,0,0,1,.85.33,1.18,1.18,0,0,1,.34.88V17.73a1.17,1.17,0,0,1-.34.86,1.14,1.14,0,0,1-.85.35,1.16,1.16,0,0,1-.86-.35,1.21,1.21,0,0,1-.34-.86v-1l.44.18a1.12,1.12,0,0,1-.28.63,3.71,3.71,0,0,1-.75.72,4.65,4.65,0,0,1-1.13.61,3.75,3.75,0,0,1-1.4.25,4.54,4.54,0,0,1-2.48-.71,5,5,0,0,1-1.76-1.95,6.08,6.08,0,0,1-.65-2.85,6.13,6.13,0,0,1,.65-2.87,5,5,0,0,1,1.74-1.95,4.39,4.39,0,0,1,2.42-.71,4.62,4.62,0,0,1,1.57.26A4.49,4.49,0,0,1,68.35,9a3.62,3.62,0,0,1,.81.8,1.33,1.33,0,0,1,.29.69l-.72.26V5.44a1.23,1.23,0,0,1,.34-.87,1.15,1.15,0,0,1,.86-.34M65.91,17a2.64,2.64,0,0,0,1.53-.44,3,3,0,0,0,1-1.19,4.19,4.19,0,0,0,0-3.4,3,3,0,0,0-1-1.19,2.72,2.72,0,0,0-1.53-.44,2.68,2.68,0,0,0-1.51.44,2.89,2.89,0,0,0-1,1.19A3.77,3.77,0,0,0,63,13.63a3.74,3.74,0,0,0,.37,1.69,2.89,2.89,0,0,0,1,1.19,2.6,2.6,0,0,0,1.51.44m10,.78a1.17,1.17,0,0,1-.34.86,1.14,1.14,0,0,1-.85.35,1.16,1.16,0,0,1-.86-.35,1.2,1.2,0,0,1-.33-.86V9.52a1.21,1.21,0,0,1,.33-.87,1.16,1.16,0,0,1,.86-.35,1.14,1.14,0,0,1,.85.35,1.18,1.18,0,0,1,.34.87v8.21M74.74,7a1.58,1.58,0,0,1-1-.22A.93.93,0,0,1,73.51,6V5.64a.9.9,0,0,1,.3-.79,1.71,1.71,0,0,1,1-.21,1.65,1.65,0,0,1,1,.22.94.94,0,0,1,.28.78V6a.89.89,0,0,1-.3.78,1.72,1.72,0,0,1-1,.21M87,4.23a1.16,1.16,0,0,1,.85.33,1.18,1.18,0,0,1,.34.88V17.73a1.17,1.17,0,0,1-.34.86,1.14,1.14,0,0,1-.85.35,1.16,1.16,0,0,1-.86-.35,1.21,1.21,0,0,1-.34-.86v-1l.44.18a1.12,1.12,0,0,1-.28.63,4,4,0,0,1-.75.72,4.84,4.84,0,0,1-1.13.61,3.75,3.75,0,0,1-1.4.25,4.54,4.54,0,0,1-2.48-.71,4.89,4.89,0,0,1-1.76-1.95,6.08,6.08,0,0,1-.65-2.85,6.13,6.13,0,0,1,.65-2.87,5,5,0,0,1,1.74-1.95,4.37,4.37,0,0,1,2.42-.71A4.69,4.69,0,0,1,85.43,9a3.62,3.62,0,0,1,.81.8,1.33,1.33,0,0,1,.29.69l-.72.26V5.44a1.23,1.23,0,0,1,.34-.87A1.15,1.15,0,0,1,87,4.23M83,17a2.64,2.64,0,0,0,1.53-.44,2.89,2.89,0,0,0,1-1.19,3.74,3.74,0,0,0,.37-1.69,3.77,3.77,0,0,0-.37-1.71,2.89,2.89,0,0,0-1-1.19A2.72,2.72,0,0,0,83,10.29a2.68,2.68,0,0,0-1.51.44,3,3,0,0,0-1,1.19,4.19,4.19,0,0,0,0,3.4,3,3,0,0,0,1,1.19A2.6,2.6,0,0,0,83,17m12.7,2.19a5.86,5.86,0,0,1-2.93-.71,4.9,4.9,0,0,1-1.91-1.92,5.61,5.61,0,0,1-.66-2.74,6.06,6.06,0,0,1,.72-3,5.21,5.21,0,0,1,1.9-1.94A4.91,4.91,0,0,1,95.3,8.1a4.47,4.47,0,0,1,1.91.42,5.36,5.36,0,0,1,1.61,1.14,5.75,5.75,0,0,1,1.1,1.68,5.19,5.19,0,0,1,.41,2,1,1,0,0,1-.38.78,1.27,1.27,0,0,1-.84.3H91.52l-.6-2h7.3l-.44.4v-.54a1.76,1.76,0,0,0-.41-1,2.69,2.69,0,0,0-.91-.72,2.6,2.6,0,0,0-1.16-.27,3.7,3.7,0,0,0-1.12.16,2.1,2.1,0,0,0-.89.54,2.69,2.69,0,0,0-.6,1,5.17,5.17,0,0,0-.22,1.61,3.46,3.46,0,0,0,.45,1.82,3,3,0,0,0,1.15,1.13,3.05,3.05,0,0,0,1.5.39,4.59,4.59,0,0,0,1.18-.12,2.42,2.42,0,0,0,.7-.29,5.33,5.33,0,0,1,.49-.28,1.5,1.5,0,0,1,.68-.18,1,1,0,0,1,.72.29,1,1,0,0,1,.29.7,1.24,1.24,0,0,1-.56,1,4.34,4.34,0,0,1-1.45.77,5.71,5.71,0,0,1-1.93.33M111,8.1a1.19,1.19,0,0,1,.86.34,1.22,1.22,0,0,1,.34.88v8.41a1.21,1.21,0,0,1-.34.86,1.16,1.16,0,0,1-.86.35,1.14,1.14,0,0,1-.85-.35,1.17,1.17,0,0,1-.34-.86v-1l.44.18a1.12,1.12,0,0,1-.28.63,4.08,4.08,0,0,1-.76.72,4.58,4.58,0,0,1-1.12.61,3.78,3.78,0,0,1-1.4.25,4.58,4.58,0,0,1-2.49-.71,5,5,0,0,1-1.76-1.95,6.08,6.08,0,0,1-.64-2.85,6.13,6.13,0,0,1,.64-2.87,5.16,5.16,0,0,1,1.74-1.95,4.4,4.4,0,0,1,2.43-.71,4.66,4.66,0,0,1,1.57.26,4.43,4.43,0,0,1,1.24.66,3.68,3.68,0,0,1,.82.8,1.33,1.33,0,0,1,.29.69l-.72.26V9.32a1.18,1.18,0,0,1,.34-.87A1.14,1.14,0,0,1,111,8.1M107,17a2.64,2.64,0,0,0,1.53-.44,2.89,2.89,0,0,0,1-1.19,3.74,3.74,0,0,0,.37-1.69,3.77,3.77,0,0,0-.37-1.71,2.89,2.89,0,0,0-1-1.19,2.72,2.72,0,0,0-1.53-.44,2.65,2.65,0,0,0-1.51.44,3,3,0,0,0-1,1.19,4.19,4.19,0,0,0,0,3.4,3,3,0,0,0,1,1.19A2.58,2.58,0,0,0,107,17" transform="translate(0 0)"/></g></g></svg>